<svg width="200" height="40" viewBox="0 0 200 40" fill="none" xmlns="http://www.w3.org/2000/svg">
<path d="M28.351 33.1053L1.58549 14.6424C-1.12687 12.7715 -0.20485 8.87601 3.17739 7.95996L31.6243 0.239132C32.2269 0.0216955 32.8727 -0.0488885 33.5081 0.0332432C34.1434 0.115375 34.75 0.34785 35.2775 0.711378C35.8049 1.07491 36.2382 1.559 36.5411 2.12348C36.8439 2.68795 37.0079 3.31654 37.0192 3.95706L35.3333 30.1393C35.1334 33.247 31.0634 34.9762 28.351 33.1053Z" fill="#E9327C"/>
<path d="M19.8618 37.6632L4.09342 6.82617C3.73296 6.12072 3.57436 5.3294 3.63506 4.53952C3.69577 3.74964 3.97345 2.99186 4.43746 2.34977C4.90149 1.70768 5.53382 1.20621 6.26474 0.900661C6.99566 0.59511 7.79676 0.497358 8.5797 0.61819L37.8025 5.12833C38.4752 5.23219 39.1138 5.49425 39.6656 5.89297C40.2174 6.29171 40.6666 6.81571 40.9765 7.4219C41.2862 8.0281 41.4478 8.69916 41.4476 9.37993C41.4475 10.0607 41.2858 10.7317 40.9759 11.3378L27.514 37.6647C27.1525 38.3681 26.6041 38.9583 25.929 39.3702C25.2539 39.7823 24.4784 40.0001 23.6875 40C22.8966 39.9999 22.1211 39.7817 21.4461 39.3695C20.7712 38.9571 20.223 38.3668 19.8618 37.6632Z" fill="#5043E9"/>
<path d="M36.9476 4.9955L22.3802 2.74714L4.49478 7.60343L11.6338 21.5695L28.351 33.1053C28.7198 33.357 29.1255 33.5497 29.5535 33.6767L35.9033 21.2592L36.9476 4.9955Z" fill="#5043E9"/>
<path d="M110.735 8.60006C110.735 8.05859 110.895 7.52929 111.196 7.07907C111.497 6.62886 111.925 6.27795 112.425 6.07073C112.925 5.86353 113.476 5.80931 114.007 5.91494C114.538 6.02059 115.026 6.28134 115.408 6.6642C115.791 7.04708 116.052 7.5349 116.158 8.06596C116.263 8.59703 116.209 9.1475 116.002 9.64775C115.795 10.148 115.444 10.5756 114.994 10.8764C114.543 11.1772 114.014 11.3378 113.473 11.3378C112.749 11.3304 112.057 11.0396 111.545 10.5278C111.033 10.0159 110.742 9.32387 110.735 8.60006ZM111.191 12.676H115.755V27.8849H111.191V12.676Z" fill="white"/>
<path d="M135.464 20.2805C135.517 21.2858 135.37 22.2916 135.033 23.2402C134.696 24.1886 134.175 25.0613 133.5 25.8077C132.824 26.554 132.008 27.1594 131.097 27.5892C130.187 28.0189 129.201 28.2645 128.195 28.3116C127.349 28.3576 126.504 28.215 125.72 27.894C124.936 27.573 124.233 27.0817 123.662 26.4557V33.9691H119.1V12.676H123.662V14.1053C124.233 13.4794 124.936 12.9884 125.72 12.6677C126.504 12.347 127.349 12.2046 128.195 12.2508C129.201 12.2978 130.187 12.5431 131.097 12.9726C132.007 13.4023 132.824 14.0076 133.499 14.7539C134.175 15.5001 134.696 16.3725 135.033 17.3211C135.37 18.2695 135.517 19.2752 135.464 20.2805ZM130.901 20.2805C130.883 19.5684 130.656 18.8775 130.247 18.294C129.839 17.7106 129.267 17.2606 128.604 17.0006C127.941 16.7404 127.216 16.6818 126.519 16.8317C125.823 16.9816 125.186 17.3336 124.689 17.8435C124.192 18.3535 123.856 18.9989 123.724 19.6988C123.591 20.3986 123.668 21.1221 123.945 21.7784C124.222 22.4347 124.686 22.9948 125.28 23.3887C125.873 23.7825 126.57 23.9924 127.282 23.9924C127.771 24.0145 128.259 23.9328 128.715 23.7528C129.17 23.5728 129.582 23.2984 129.924 22.9479C130.266 22.5973 130.529 22.1785 130.698 21.7187C130.866 21.2591 130.936 20.7688 130.901 20.2805Z" fill="white"/>
<path d="M149.546 23.3196C149.546 26.8182 146.504 28.3087 143.219 28.3087C141.892 28.4288 140.559 28.1478 139.394 27.5023C138.228 26.8568 137.283 25.8763 136.68 24.6877L140.634 22.4378C140.794 22.9873 141.139 23.4649 141.609 23.7907C142.08 24.1166 142.648 24.271 143.219 24.2282C144.314 24.2282 144.86 23.8925 144.86 23.2853C144.86 21.6113 137.378 22.4945 137.378 17.2309C137.378 13.9158 140.176 12.2434 143.346 12.2434C144.535 12.206 145.712 12.4882 146.755 13.0605C147.799 13.6328 148.669 14.4743 149.276 15.4973L145.384 17.5965C145.214 17.1972 144.93 16.8569 144.567 16.6182C144.205 16.3793 143.78 16.2527 143.346 16.2537C142.555 16.2537 142.069 16.5521 142.069 17.1056C142.064 18.8512 149.546 17.6949 149.546 23.3196Z" fill="white"/>
<path d="M166.222 12.676V27.8849H161.659V26.4527C161.133 27.0836 160.463 27.5807 159.707 27.9034C158.952 28.226 158.13 28.3649 157.309 28.3087C154.237 28.3087 151.622 26.1185 151.622 22.0111V12.676H156.184V21.3457C156.145 21.7083 156.187 22.0749 156.305 22.4198C156.423 22.7647 156.614 23.08 156.866 23.3435C157.118 23.6069 157.424 23.8122 157.763 23.9452C158.103 24.0782 158.467 24.1355 158.831 24.1133C160.503 24.1133 161.665 23.1405 161.665 20.9802V12.676H166.222Z" fill="white"/>
<path d="M192.373 18.5454V27.8849H187.81V18.9422C187.81 17.4219 187.079 16.4477 185.62 16.4477C184.098 16.4477 183.248 17.5129 183.248 19.3077V27.8849H178.684V18.9422C178.684 17.4219 177.955 16.4477 176.494 16.4477C174.974 16.4477 174.122 17.5129 174.122 19.3077V27.8849H169.559V12.676H174.129V14.0695C174.602 13.449 175.223 12.957 175.934 12.6381C176.646 12.3195 177.428 12.1842 178.205 12.2449C178.985 12.2067 179.764 12.3715 180.462 12.7232C181.161 13.0748 181.756 13.6013 182.19 14.2515C182.696 13.5714 183.366 13.0304 184.137 12.6795C184.908 12.3285 185.757 12.179 186.602 12.2449C190.093 12.2508 192.373 14.7439 192.373 18.5454Z" fill="white"/>
<path d="M196.238 12.582C198.109 12.582 199.625 11.0658 199.625 9.19534C199.625 7.32491 198.109 5.80862 196.238 5.80862C194.367 5.80862 192.852 7.32491 192.852 9.19534C192.852 11.0658 194.367 12.582 196.238 12.582Z" fill="#5043E9"/>
<path d="M48.4431 5.68022H53.0069V27.8849H48.4431V5.68022ZM55.591 20.2805C55.5861 18.6859 56.0542 17.1258 56.9364 15.7976C57.8186 14.4694 59.0751 13.4328 60.5468 12.8191C62.0186 12.2054 63.6391 12.0423 65.2038 12.3503C66.7682 12.6583 68.2061 13.4235 69.3354 14.5493C70.4647 15.675 71.2345 17.1104 71.5474 18.674C71.8602 20.2375 71.7022 21.8587 71.0932 23.3323C70.4842 24.8059 69.4516 26.0657 68.1262 26.952C66.8007 27.8384 65.2421 28.3116 63.6475 28.3116C62.5885 28.3228 61.5379 28.1231 60.5569 27.7238C59.5761 27.3246 58.6845 26.7338 57.9345 25.9861C57.1844 25.2384 56.5909 24.3487 56.1885 23.3691C55.7861 22.3895 55.5831 21.3395 55.591 20.2805ZM67.1506 20.2805C67.1327 19.5926 66.9125 18.9254 66.5173 18.3621C66.1222 17.7989 65.5697 17.3646 64.9291 17.1137C64.2883 16.8629 63.588 16.8063 62.9154 16.9515C62.2428 17.0965 61.628 17.4368 61.1477 17.9295C60.6675 18.4223 60.3433 19.0456 60.2154 19.7216C60.0877 20.3978 60.162 21.0964 60.4294 21.7305C60.6966 22.3644 61.1449 22.9056 61.7181 23.2862C62.2913 23.6668 62.964 23.8698 63.652 23.8701C64.1231 23.8835 64.5921 23.7991 65.0289 23.6223C65.4659 23.4457 65.8614 23.1802 66.1907 22.8429C66.5199 22.5057 66.7758 22.1039 66.942 21.6629C67.1082 21.2218 67.1813 20.7511 67.1566 20.2805H67.1506ZM89.9013 12.6716V27.1211C89.9013 32.231 85.9163 34.3898 81.8716 34.3898C80.448 34.4973 79.0222 34.2106 77.7504 33.5614C76.4788 32.9122 75.4105 31.9253 74.6625 30.7092L78.555 28.4579C78.8692 29.0925 79.3698 29.6162 79.9897 29.9589C80.6096 30.3015 81.3192 30.4466 82.0238 30.375C82.4736 30.4363 82.9314 30.396 83.3634 30.2568C83.7955 30.1176 84.1907 29.8834 84.5201 29.571C84.8494 29.2587 85.1044 28.8765 85.2663 28.4523C85.4281 28.0283 85.4927 27.5733 85.4553 27.1211V25.7216C84.9209 26.3751 84.2407 26.8943 83.4695 27.2376C82.6982 27.5809 81.8572 27.7387 81.0138 27.6985C79.0063 27.6359 77.1019 26.7946 75.7039 25.3525C74.306 23.9104 73.5242 21.9809 73.5242 19.9724C73.5242 17.9638 74.306 16.0343 75.7039 14.5921C77.1019 13.15 79.0063 12.3087 81.0138 12.2463C81.8572 12.2059 82.6982 12.3637 83.4695 12.7071C84.2407 13.0504 84.9209 13.5696 85.4553 14.2232V12.6716H89.9013ZM85.4613 19.9717C85.4914 19.237 85.301 18.5103 84.9148 17.8847C84.5285 17.2591 83.9639 16.7634 83.2936 16.4613C82.6234 16.1591 81.8781 16.0644 81.1536 16.1893C80.4291 16.3141 79.7584 16.6528 79.2279 17.1619C78.6974 17.6709 78.3312 18.3269 78.1767 19.0456C78.022 19.7644 78.0858 20.5129 78.36 21.1952C78.6341 21.8773 79.1062 22.4619 79.7152 22.8736C80.3242 23.2854 81.0426 23.5056 81.7776 23.5061C82.257 23.5396 82.7382 23.4727 83.1901 23.3093C83.642 23.1459 84.0547 22.8898 84.4017 22.5572C84.7486 22.2248 85.0222 21.8233 85.2046 21.3789C85.3871 20.9343 85.4745 20.4564 85.4613 19.9761V19.9717ZM92.4854 20.27C92.4804 18.6755 92.9486 17.1153 93.8308 15.7872C94.713 14.4589 95.9695 13.4223 97.4411 12.8087C98.913 12.195 100.534 12.0318 102.098 12.3398C103.663 12.6478 105.1 13.4131 106.23 14.5389C107.359 15.6646 108.129 17.1 108.442 18.6635C108.755 20.2271 108.597 21.8482 107.988 23.3218C107.379 24.7954 106.346 26.0552 105.021 26.9416C103.695 27.828 102.136 28.3012 100.542 28.3012C99.4838 28.3124 98.434 28.1129 97.4538 27.7143C96.4736 27.3158 95.5825 26.7259 94.8326 25.9793C94.0826 25.2327 93.489 24.3444 93.086 23.3658C92.6829 22.3874 92.4788 21.3386 92.4854 20.2805V20.27ZM104.045 20.27C104.027 19.5818 103.807 18.914 103.412 18.3502C103.017 17.7866 102.464 17.3519 101.823 17.1007C101.182 16.8495 100.481 16.7929 99.8083 16.9381C99.1353 17.0831 98.52 17.4236 98.0396 17.9165C97.559 18.4096 97.2345 19.0334 97.1068 19.7098C96.9789 20.3863 97.0535 21.0855 97.321 21.7198C97.5887 22.3541 98.0373 22.8954 98.611 23.2762C99.1848 23.6568 99.858 23.8597 100.546 23.8597C101.016 23.8721 101.483 23.7875 101.919 23.611C102.354 23.4345 102.749 23.1698 103.077 22.8338C103.406 22.4978 103.661 22.0975 103.828 21.6582C103.994 21.2188 104.068 20.7497 104.045 20.2805V20.27Z" fill="white"/>
</svg>
